<?xml version="1.0" encoding="UTF-8"?>
<svg width="121px" height="41px" viewBox="0 0 121 41" version="1.1" xmlns="http://www.w3.org/2000/svg" xmlns:xlink="http://www.w3.org/1999/xlink">
    <title>461C10FD-3BA7-4F0F-B262-662CED4FF86F</title>
    <g id="Page-1" stroke="none" stroke-width="1" fill="none" fill-rule="evenodd">
        <g id="Splitter---Landing-(1920)" transform="translate(-1713.000000, -1010.000000)">
            <g id="by-brand" transform="translate(351.000000, 923.750000)">
                <g id="lenovo" transform="translate(1300.000000, 57.000000)">
                    <g id="lenovo-logo" transform="translate(62.500000, 30.000000)">
                        <polygon id="Fill-1" fill="#231F20" points="0 40 120 40 120 0 0 0"></polygon>
                        <g id="Group-14" transform="translate(10.909091, 9.350649)" fill="#FEFEFE">
                            <path d="M41.1498287,4.36687861 C39.3788836,4.36687861 37.3644325,5.18579077 36.1335622,6.82540931 L36.1345366,6.82241894 L36.1335622,6.82354033 L36.1345366,4.6239007 L31.9093457,4.6239007 L31.9093457,19.969869 L36.1335622,19.969869 L36.1335622,11.23822 C36.1335622,9.66648277 37.3548391,7.99613821 39.6164686,7.99613821 C41.3646296,7.99613821 43.1731986,9.2086575 43.1731986,11.23822 L43.1731986,19.969869 L47.39764,19.969869 L47.39764,10.4569864 C47.39764,6.92820319 44.8665727,4.36687861 41.1498287,4.36687861" id="Fill-2"></path>
                            <polygon id="Fill-4" points="77.4226293 4.62510433 73.6035065 15.0783827 69.7843836 4.62510433 64.9590845 4.62510433 71.2893385 19.9652414 75.9176744 19.9652414 82.2479284 4.62510433"></polygon>
                            <path d="M19.2978537,9.24798083 C20.0171292,8.28463392 21.1633083,7.71915541 22.5472972,7.71915541 C24.0698648,7.71915541 25.2248128,8.58636201 25.8215484,9.86586553 L18.4412736,12.9200027 C18.2392888,11.3531248 18.6414595,10.1270741 19.2978537,9.24798083 L19.2978537,9.24798083 Z M27.4138926,15.2519661 C25.6356774,16.5641394 24.6197579,16.8778289 22.9984838,16.8778289 C21.5392472,16.8778289 20.3971903,16.4259096 19.5915747,15.6333127 L30.3916497,11.1640588 C30.1560883,9.49842411 29.5226282,8.01131432 28.5472555,6.88013303 C27.1283409,5.23565515 25.0278495,4.36613102 22.4710751,4.36613102 C17.825726,4.36613102 14.3228836,7.78464446 14.3228836,12.2991276 C14.3228836,16.9305341 17.8335206,20.2308533 22.9360522,20.2308533 C25.7949418,20.2308533 28.717987,18.8792072 30.0849627,17.3004426 L27.4138926,15.2519661 Z" id="Fill-6"></path>
                            <polygon id="Fill-8" points="13.9203381 16.1008567 4.31838112 16.1008567 4.31838112 0.035405952 0.0370542679 0.035405952 0.0370542679 19.969869 13.9203381 19.969869"></polygon>
                            <path d="M89.8330959,7.97718675 C87.4737344,7.97718675 85.7615484,9.76034293 85.7615484,12.2977446 C85.7615484,14.7199423 87.5755886,16.6177791 89.8902812,16.6177791 C92.2496427,16.6177791 93.9622784,14.7853566 93.9622784,12.2977446 C93.9622784,9.87502353 92.1482382,7.97718675 89.8330959,7.97718675 M89.8330959,20.2284984 C85.2129294,20.2284984 81.5935428,16.7954817 81.5935428,12.2977446 C81.5935428,7.85032041 85.237962,4.3661684 89.8902812,4.3661684 C94.5098482,4.3661684 98.1293096,7.79933464 98.1293096,12.2977446 C98.1293096,16.7441221 94.4851153,20.2284984 89.8330959,20.2284984" id="Fill-10"></path>
                            <path d="M57.3084724,7.97718675 C54.9491109,7.97718675 53.2369249,9.76034293 53.2369249,12.2977446 C53.2369249,14.7199423 55.0510401,16.6177791 57.3656577,16.6177791 C59.7250193,16.6177791 61.4377299,14.7853566 61.4377299,12.2977446 C61.4377299,9.87502353 59.6236147,7.97718675 57.3084724,7.97718675 M57.3084724,20.2284984 C52.6883808,20.2284984 49.0689194,16.7954817 49.0689194,12.2977446 C49.0689194,7.85032041 52.7133385,4.3661684 57.3656577,4.3661684 C61.9852997,4.3661684 65.6046862,7.79933464 65.6046862,12.2977446 C65.6046862,16.7441221 61.9604919,20.2284984 57.3084724,20.2284984" id="Fill-12"></path>
                        </g>
                    </g>
                </g>
            </g>
        </g>
    </g>
</svg>